<svg xmlns="http://www.w3.org/2000/svg" xmlns:xlink="http://www.w3.org/1999/xlink" version="1.1" id="Layer_1" x="0px" y="0px" style="enable-background:new 0 0 612 792;" xml:space="preserve" viewBox="84.2 204.8 452 429.8">
<style type="text/css">
	.st0{fill:#9141FD;}
	.st1{fill:#F4C730;}
</style>
<g id="XMLID_159_">
	<g id="XMLID_49_">
		<g id="XMLID_39_">
			<circle id="XMLID_43_" class="st0" cx="310.2" cy="302.2" r="97.4"/>
			<circle id="XMLID_42_" class="st0" cx="310.2" cy="373.3" r="72.5"/>
			<circle id="XMLID_41_" class="st0" cx="222.4" cy="363.6" r="61.4"/>
			<circle id="XMLID_40_" class="st0" cx="398" cy="363.6" r="61.4"/>
		</g>
	</g>
	<g id="XMLID_153_">
		<g id="XMLID_46_">
			<path id="XMLID_232_" class="st1" d="M130.3,470.1H96.6c-6.8,0-12.4,5.6-12.4,12.4v39c0,8.2,6.6,14.8,14.8,14.8     c8.2,0,14.8-6.6,14.8-14.8v-4h16.5c6.5,0,12.5-2.7,16.8-6.9c4.3-4.3,6.9-10.2,6.9-16.8C154,480.7,143.4,470.1,130.3,470.1z      M120.6,499c-1,1-2.5,1.7-4,1.7h-2.8v-11.4h2.8c3.2,0,5.7,2.5,5.7,5.7C122.3,496.6,121.6,498,120.6,499z"/>
			<path id="XMLID_228_" class="st1" d="M186.7,478.9c-16.9,0-30.6,12.8-30.6,28.7c0,15.9,13.7,28.7,30.6,28.7     c16.9,0,30.6-12.8,30.6-28.7C217.3,491.7,203.6,478.9,186.7,478.9z M190.7,511.8c0,2.2-1.8,3.9-4,3.9c-2.2,0-3.9-1.8-3.9-3.9     v-8.3c0-2.2,1.8-3.9,3.9-3.9c2.2,0,4,1.8,4,3.9V511.8z"/>
			<path id="XMLID_224_" class="st1" d="M279.3,485c-3.8-3.8-9.1-6.2-14.8-6.2c-6.3,0-12,2.8-15.9,7.3c-1.2-2.2-3-4-5.1-5.3     c-2.1-1.3-4.6-2-7.3-2c-7.7,0-14.1,6.3-14.1,14.1v42.9c0,3.9,1.6,7.4,4.1,9.9c2.5,2.5,6.1,4.1,9.9,4.1c7.8,0,14.1-6.3,14.1-14.1     v-4.4c3.7,3.4,8.7,5.5,14.2,5.5c11.5,0,21-9.4,21-21v-16.1C285.4,494,283.1,488.8,279.3,485z M256.7,512.9c0,1.8-1.4,3.2-3.2,3.2     c-1.8,0-3.2-1.4-3.2-3.2v-9.4c0-1.8,1.4-3.2,3.2-3.2c0.9,0,1.7,0.4,2.3,0.9c0.6,0.6,0.9,1.4,0.9,2.3V512.9z"/>
			<path id="XMLID_223_" class="st1" d="M318.2,507.6c0,3.4,2.9,6.1,6.4,6.1c1.7,0,3.2-0.6,4.3-1.6c2.1-1.8,4.5-3,7.2-3h1     c8.9,0,13.7,10.6,7.7,17.1c-5.6,6.2-13.9,10.1-23.2,10.1c-16.9,0-30.5-12.8-30.5-28.7c0-15.9,13.7-28.7,30.5-28.7     c9.3,0,17.6,3.9,23.2,10c6,6.6,1.2,17.1-7.7,17.1h-1c-2.7,0-5.1-1.2-7.2-3c-1.1-1-2.7-1.6-4.3-1.6     C321.1,501.5,318.2,504.3,318.2,507.6z"/>
			<path id="XMLID_214_" class="st1" d="M382.4,478.9c-16.9,0-30.6,12.8-30.6,28.7c0,15.9,13.7,28.7,30.6,28.7     c16.9,0,30.6-12.8,30.6-28.7C413,491.7,399.3,478.9,382.4,478.9z M386.3,511.8c0,2.2-1.8,3.9-4,3.9c-2.2,0-3.9-1.8-3.9-3.9v-8.3     c0-2.2,1.8-3.9,3.9-3.9c2.2,0,4,1.8,4,3.9V511.8z"/>
			<path id="XMLID_207_" class="st1" d="M470.4,491.8c0,6.8-5.7,12.3-12.6,12.3c-0.6,0-1.2-0.1-1.8-0.2c-2.1,0.1-5.2,0.7-7.5,3.3     c-1,1.1-1.6,2.4-2,3.4v12.1c0,7.5-6.1,13.5-13.5,13.5c-7.5,0-13.5-6.1-13.5-13.5v-30.4c0-7.5,6.1-13.5,13.5-13.5     c3.7,0,7.1,1.5,9.5,3.9c1.4,1.4,2.5,3.2,3.2,5.1c1.6-5,6.4-8.6,12-8.6C464.7,479.4,470.4,484.9,470.4,491.8z"/>
			<path id="XMLID_205_" class="st1" d="M536,496.5c0.1,0.7,0.2,1.4,0.2,2.1c0,0.8-0.1,1.6-0.2,2.3v21.8c0,7.5-6.1,13.6-13.6,13.6     c-7.5,0-13.6-6.1-13.6-13.6v-19.9c-0.1,0-0.1,0-0.1,0c-0.3-1.4-1.6-2.5-3.2-2.5c-1.5,0-2.8,1.1-3.2,2.5c0,0.1,0,0.1,0,0.1h-0.1     v19.8c0,7.5-6.1,13.6-13.6,13.6c-7.5,0-13.6-6.1-13.6-13.6v-30.4c0-7.5,6.1-13.6,13.6-13.6c3.7,0,7.1,1.5,9.6,4     c1.3,1.3,2.3,2.8,3,4.5c0.2-0.2,0.5-0.5,0.7-0.7c3.2-4,8.1-6.7,13.5-7.1c0.5,0,0.9-0.1,1.4-0.1c9.8,0,17.9,7.3,19,16.8     C536,496.2,536,496.3,536,496.5L536,496.5z"/>
		</g>
		<g id="XMLID_242_">
			<path id="XMLID_195_" class="st0" d="M179.4,554.8h-33.7c-6.8,0-12.4,5.6-12.4,12.4v39c0,8.2,6.6,14.8,14.8,14.8     c8.2,0,14.8-6.6,14.8-14.8v-4h16.5c6.5,0,12.5-2.7,16.8-6.9c4.3-4.3,6.9-10.2,6.9-16.8C203.1,565.4,192.5,554.8,179.4,554.8z      M169.7,583.8c-1,1-2.5,1.7-4,1.7h-2.8v-11.4h2.8c3.2,0,5.7,2.5,5.7,5.7C171.4,581.3,170.8,582.8,169.7,583.8z"/>
			<path id="XMLID_194_" class="st0" d="M269.7,577.1v30.4c0,7.5-6.1,13.6-13.6,13.6c-3.8,0-7.1-1.5-9.6-4c-1.3-1.3-2.3-2.8-3-4.5     c-0.2,0.2-0.5,0.5-0.7,0.7c-3.2,4-8.1,6.7-13.6,7.1c-0.5,0-0.9,0.1-1.4,0.1c-9.8,0-17.8-7.3-19-16.8c0-0.1,0-0.2,0-0.3v-0.1     c-0.1-0.7-0.2-1.4-0.2-2.1c0-0.8,0.1-1.6,0.2-2.3v-21.8c0-7.5,6.1-13.6,13.6-13.6c7.5,0,13.6,6.1,13.6,13.6V597     c0.1,0,0.1,0,0.1,0c0.3,1.4,1.6,2.5,3.2,2.5c1.5,0,2.9-1.1,3.2-2.5c0-0.1,0-0.1,0-0.1h0.1v-19.8c0-7.5,6.1-13.6,13.6-13.6     C263.7,563.5,269.7,569.6,269.7,577.1z"/>
			<path id="XMLID_147_" class="st0" d="M325.7,576.5c0,6.8-5.6,12.3-12.6,12.3c-0.6,0-1.2-0.1-1.8-0.2c-2.1,0.1-5.1,0.7-7.4,3.3     c-1,1.1-1.6,2.4-2,3.4v12.1c0,7.5-6.1,13.5-13.5,13.5c-7.5,0-13.5-6.1-13.5-13.5v-30.4c0-7.5,6.1-13.5,13.5-13.5     c3.7,0,7.1,1.5,9.5,3.9c1.4,1.4,2.5,3.2,3.2,5.1c1.6-5,6.4-8.6,12-8.6C320.1,564.2,325.7,569.7,325.7,576.5z"/>
			<path id="XMLID_124_" class="st0" d="M385.5,569.8c-3.8-3.8-9.1-6.2-14.8-6.2c-6.3,0-12,2.8-15.9,7.3c-1.2-2.2-2.9-4-5-5.3     s-4.6-2-7.3-2c-7.8,0-14.1,6.3-14.1,14.1v42.9c0,3.9,1.6,7.4,4.1,9.9c2.5,2.5,6.1,4.1,9.9,4.1c7.7,0,14.1-6.3,14.1-14.1v-4.4     c3.7,3.4,8.7,5.5,14.1,5.5c11.6,0,21-9.4,21-21v-16.1C391.6,578.8,389.3,573.5,385.5,569.8z M362.9,597.7c0,1.8-1.4,3.2-3.2,3.2     c-1.8,0-3.2-1.4-3.2-3.2v-9.4c0-1.8,1.4-3.2,3.2-3.2c0.9,0,1.7,0.4,2.3,0.9c0.6,0.6,0.9,1.4,0.9,2.3V597.7z"/>
			<path id="XMLID_123_" class="st0" d="M419.6,558.8c2.4,2.4,4,5.8,4,9.6v39.2c0,7.5-6.1,13.5-13.5,13.5c-7.4,0-13.5-6.1-13.5-13.5     v-39.2c0-7.5,6.1-13.5,13.5-13.5C413.8,554.8,417.2,556.3,419.6,558.8z"/>
			<path id="XMLID_98_" class="st0" d="M481.9,599.1C481.9,599.1,481.9,599.1,481.9,599.1c-0.7-0.5-1.5-0.9-2.4-1.1     c-0.1-0.1-0.3-0.1-0.4-0.1c-0.3-0.1-0.6-0.1-0.8-0.1c-0.3,0-0.4-0.1-0.7-0.1c-0.6,0-1.1,0.1-1.7,0.2c-2.2,0.3-4.9,1.2-7.6,2.7     c0,0,0,0-0.1,0c-2,1.1-4.3,1.7-6.6,1.7h-0.4c-1.8,0-3.4-0.8-4.4-2c-0.1,0-0.1,0-0.1-0.1c-0.9-1-1.5-2.4-1.5-3.9h23     c0.3,0,0.5-0.1,0.8-0.1c0,0,0,0,0.1,0c2.3-0.5,4.5-2.1,5.8-4.2c1.3-2.2,2.1-4.9,2.1-7.9c0-3.2-0.9-6.1-2.5-8.4     c-0.2-0.4-0.5-0.7-0.8-1c-0.2-0.2-0.3-0.4-0.5-0.6c-5.6-6.4-14.1-10.6-23.6-10.6c-16.9,0-30.5,12.8-30.5,28.7     c0,15.9,13.6,28.7,30.5,28.7c8.6,0,16.4-3.4,21.9-8.7c0.1,0,0.1,0,0.1-0.1c1.1-1.1,2.2-2.3,3.1-3.6c0,0,0,0,0.1-0.1     c0.4-0.9,0.6-1.9,0.6-3C485.3,602.9,484,600.6,481.9,599.1z M459.1,580.9h1.2c1.4,0,2.6,0.7,3.4,1.7c0.6,0.7,0.9,1.6,0.9,2.6     c0,0.8-0.3,1.6-0.6,2.2c-0.8,1.2-2.1,2.1-3.7,2.1h-1.2c-2.4,0-4.3-1.9-4.3-4.3C454.8,582.8,456.8,580.9,459.1,580.9z"/>
		</g>
	</g>
</g>
</svg>